<?xml version="1.0" standalone="no"?>
<!DOCTYPE svg PUBLIC "-//W3C//DTD SVG 20010904//EN"
 "http://www.w3.org/TR/2001/REC-SVG-20010904/DTD/svg10.dtd">
<svg version="1.0" xmlns="http://www.w3.org/2000/svg"
 width="700.000000pt" height="700.000000pt" viewBox="0 0 700.000000 700.000000"
 preserveAspectRatio="xMidYMid meet">
<metadata>
Created by potrace 1.14, written by Peter Selinger 2001-2017
</metadata>
<g transform="translate(0.000000,700.000000) scale(0.100000,-0.100000)"
fill="#000000" stroke="none">
<path d="M3378 6981 c-32 -10 -93 -40 -135 -67 -87 -53 -435 -285 -443 -294
-3 -3 -36 -28 -75 -55 -38 -27 -72 -51 -75 -54 -3 -3 -41 -33 -85 -66 -89 -67
-316 -247 -355 -281 -14 -12 -50 -43 -80 -69 -71 -61 -179 -157 -250 -220
-157 -142 -628 -625 -751 -770 -19 -22 -39 -45 -45 -51 -93 -100 -279 -333
-542 -679 -141 -187 -432 -638 -506 -786 -38 -75 -43 -109 -26 -171 25 -90 95
-134 240 -153 25 -4 56 -8 70 -10 14 -2 52 -7 85 -10 33 -3 74 -8 90 -10 31
-5 112 -13 200 -20 81 -7 118 -23 147 -64 l27 -38 5 -464 c3 -255 8 -498 10
-539 3 -41 7 -131 11 -200 3 -69 8 -150 10 -180 2 -30 6 -95 10 -145 3 -49 7
-121 10 -160 4 -70 15 -203 20 -260 2 -16 6 -70 10 -119 4 -49 8 -96 10 -105
1 -9 6 -52 10 -96 4 -44 8 -92 10 -107 2 -14 6 -59 10 -100 3 -40 8 -84 10
-98 2 -14 7 -50 10 -80 32 -313 52 -378 127 -427 41 -28 43 -28 202 -27 137 1
473 9 794 18 46 2 87 7 93 13 13 13 14 54 5 128 -3 33 -9 88 -11 123 -2 35 -6
87 -9 115 -3 29 -8 97 -11 152 -3 55 -8 127 -10 160 -5 75 -13 207 -20 355
-11 207 -13 231 -27 252 -8 11 -47 44 -88 72 -174 120 -286 326 -317 583 -12
95 -5 757 12 1153 1 36 6 153 9 260 4 107 9 236 11 285 2 50 7 158 10 240 15
404 17 419 67 446 32 17 100 15 130 -5 52 -34 55 -51 44 -281 -4 -82 -9 -193
-11 -245 -2 -52 -7 -171 -10 -265 -4 -93 -8 -208 -10 -255 -1 -47 -6 -186 -11
-310 -12 -330 -8 -366 37 -424 59 -75 197 -80 261 -9 45 50 49 78 53 431 3
186 7 369 9 407 3 39 7 129 11 200 3 72 7 155 10 185 2 30 6 96 10 145 22 337
23 346 35 376 23 56 118 79 169 42 45 -34 52 -59 45 -163 -4 -52 -8 -113 -9
-135 -2 -22 -6 -107 -10 -190 -4 -82 -8 -175 -10 -205 -7 -126 -18 -619 -19
-810 l-1 -205 27 -46 c40 -69 116 -98 198 -76 46 12 78 42 104 97 18 40 21 66
23 225 2 215 11 548 18 660 15 270 20 358 30 500 2 33 7 110 11 170 3 62 13
124 21 142 31 66 145 74 196 13 28 -32 26 10 12 -440 -7 -231 -10 -332 -20
-675 -4 -121 -9 -269 -11 -330 -2 -60 -6 -294 -8 -520 -4 -362 -7 -422 -25
-510 -24 -118 -77 -231 -148 -319 -44 -55 -68 -77 -188 -171 -33 -26 -38 -36
-38 -70 0 -52 14 -338 18 -390 2 -22 6 -88 10 -147 3 -59 7 -129 10 -155 2
-27 6 -86 10 -133 6 -85 8 -118 20 -260 12 -146 18 -170 43 -171 111 -5 1468
-2 1490 3 27 7 32 14 41 61 6 28 13 81 16 117 4 36 8 81 10 100 2 19 6 73 10
120 4 47 8 101 10 120 2 19 6 76 10 125 4 50 8 106 10 125 9 83 19 241 19 310
1 70 -1 75 -24 87 -14 6 -51 15 -83 18 -32 4 -66 8 -76 10 -10 2 -42 6 -72 10
-30 3 -65 8 -79 10 -14 2 -45 7 -69 10 -52 7 -115 31 -152 57 -62 42 -83 172
-83 513 -1 234 8 477 19 507 2 7 6 40 9 73 14 178 82 502 157 747 138 450 309
820 554 1194 107 163 151 215 213 252 85 49 198 26 248 -51 35 -54 47 -99 60
-232 3 -33 7 -70 9 -83 2 -13 7 -65 10 -115 4 -51 8 -108 10 -127 5 -51 16
-286 20 -430 5 -160 5 -826 0 -995 -14 -489 -25 -769 -40 -1010 -3 -44 -7
-125 -10 -180 -7 -137 -15 -270 -20 -330 -2 -27 -7 -93 -10 -145 -3 -52 -8
-117 -10 -145 -2 -27 -7 -88 -10 -135 -3 -47 -8 -103 -10 -125 -2 -22 -7 -78
-11 -125 -3 -47 -8 -101 -9 -120 -2 -19 -7 -74 -10 -121 -9 -118 -8 -119 148
-120 67 0 178 -2 247 -4 339 -9 346 -9 381 11 70 41 135 170 153 304 3 25 8
61 10 80 16 115 19 138 21 165 4 39 15 143 20 175 2 14 7 59 10 100 3 41 8 95
10 120 5 57 14 184 20 276 2 39 7 102 9 140 5 63 10 151 21 364 3 69 10 227
20 485 8 207 20 630 24 842 1 40 7 58 28 83 30 36 51 46 114 55 24 3 55 8 69
10 14 2 52 7 85 10 125 12 153 15 245 25 155 18 173 20 210 32 55 17 77 36
101 84 30 62 21 144 -26 237 -62 123 -543 827 -684 1002 -148 183 -241 360
-256 486 -15 135 -35 293 -50 404 -9 66 -37 272 -41 298 -5 45 -14 108 -24
172 -5 33 -12 80 -15 105 -3 25 -8 56 -10 70 -5 32 -26 176 -30 209 -27 193
-28 201 -62 254 -56 89 -125 109 -448 133 -44 3 -98 7 -120 9 -183 17 -247 17
-290 0 -99 -37 -126 -112 -129 -356 -2 -235 -9 -240 -168 -112 -96 77 -113 90
-244 188 -189 141 -233 173 -444 314 -118 79 -243 157 -278 173 -84 38 -202
46 -284 19z"/>
</g>
</svg>
